<svg id="svg" version="1.1" xmlns="http://www.w3.org/2000/svg" xmlns:xlink="http://www.w3.org/1999/xlink" width="400" height="400" viewBox="0, 0, 400,400"><g id="svgg"><path id="path0" d="M130.736 131.717 C 129.786 132.441,128.590 133.656,128.078 134.417 L 127.146 135.800 118.473 136.000 L 109.800 136.200 109.800 138.800 L 109.800 141.400 118.329 141.600 C 125.346 141.765,126.918 141.906,127.197 142.400 C 131.742 150.440,142.528 149.521,144.451 140.930 C 146.148 133.347,136.816 127.079,130.736 131.717 M197.800 143.161 C 195.857 143.528,193.548 144.498,192.015 145.589 C 190.416 146.728,190.066 146.613,189.924 144.900 L 189.800 143.400 185.800 143.400 L 181.800 143.400 181.800 159.200 L 181.800 175.000 186.000 175.000 L 190.200 175.000 190.400 165.400 C 190.612 155.206,190.706 154.699,192.783 152.498 C 195.275 149.858,201.041 149.731,203.257 152.267 C 204.848 154.088,204.959 154.826,205.181 165.000 L 205.400 175.000 208.800 175.118 C 210.670 175.183,212.605 175.135,213.100 175.010 L 214.000 174.785 213.982 165.892 C 213.955 152.171,213.355 149.278,209.881 146.140 C 207.054 143.586,202.063 142.355,197.800 143.161 M274.000 143.058 C 260.785 144.671,255.192 161.717,264.932 170.695 C 271.131 176.409,282.817 176.990,289.301 171.908 C 291.019 170.561,291.009 170.520,288.293 167.654 L 286.385 165.642 284.328 166.921 C 278.854 170.324,268.618 167.077,269.165 162.112 C 269.183 161.940,274.554 161.710,281.099 161.600 L 293.000 161.400 292.967 157.983 C 292.874 148.255,284.621 141.761,274.000 143.058 M220.568 144.215 C 220.708 144.773,221.358 146.397,222.011 147.825 C 222.665 149.252,223.200 150.497,223.200 150.592 C 223.200 150.687,223.988 152.617,224.950 154.882 C 225.913 157.147,227.643 161.250,228.794 164.000 C 234.010 176.454,232.964 175.186,238.024 175.194 C 242.517 175.201,242.742 175.073,244.010 171.800 C 244.521 170.480,245.335 168.500,245.820 167.400 C 246.771 165.241,248.686 160.707,251.988 152.800 C 253.136 150.050,254.492 146.869,255.002 145.731 C 256.162 143.138,256.247 143.200,251.523 143.200 C 247.590 143.200,247.579 143.203,247.163 144.300 C 246.934 144.905,245.836 147.560,244.723 150.200 C 243.610 152.840,241.911 156.890,240.947 159.200 C 238.898 164.108,238.633 164.617,238.156 164.550 C 237.960 164.522,236.000 160.069,233.800 154.654 C 228.617 141.897,229.669 143.200,224.553 143.200 L 220.313 143.200 220.568 144.215 M280.493 150.181 C 282.977 151.219,285.286 154.557,284.656 156.199 C 284.163 157.483,268.800 156.992,268.800 155.692 C 268.800 151.503,275.781 148.212,280.493 150.181 M132.800 178.676 C 131.382 179.179,129.187 180.980,128.231 182.425 L 127.199 183.984 118.499 184.092 L 109.800 184.200 109.800 187.200 L 109.800 190.200 118.410 190.308 L 127.020 190.415 128.010 192.031 C 132.062 198.643,142.462 197.067,144.453 189.539 C 146.181 183.003,139.131 176.430,132.800 178.676 M133.000 225.488 C 131.636 225.820,128.895 228.127,128.005 229.692 L 127.158 231.185 118.479 231.292 L 109.800 231.400 109.800 234.400 L 109.800 237.400 118.496 237.508 L 127.192 237.616 127.896 238.708 C 132.323 245.576,142.826 243.798,144.483 235.900 C 145.873 229.274,139.855 223.818,133.000 225.488 M197.771 231.782 C 189.142 233.361,184.000 239.257,184.000 247.572 C 184.000 260.197,198.429 267.477,210.466 260.925 C 223.003 254.102,218.888 233.691,204.600 231.830 C 203.500 231.687,202.150 231.501,201.600 231.417 C 201.050 231.333,199.327 231.497,197.771 231.782 M236.753 231.798 C 219.961 235.171,220.384 258.081,237.295 261.193 C 240.881 261.853,244.590 261.156,247.337 259.308 C 249.534 257.829,250.001 257.902,249.998 259.724 C 249.984 267.516,240.861 270.493,231.514 265.756 C 229.685 264.830,228.800 264.781,228.800 265.606 C 228.800 265.803,228.250 266.897,227.578 268.037 C 226.055 270.621,226.197 270.980,229.296 272.370 C 238.989 276.718,251.731 274.920,255.908 268.614 C 258.487 264.720,258.600 263.819,258.600 247.200 L 258.600 232.200 254.600 232.200 L 250.600 232.200 250.476 233.700 C 250.326 235.505,249.998 235.551,248.077 234.035 C 245.260 231.813,240.934 230.958,236.753 231.798 M204.621 239.252 C 210.338 241.939,210.859 251.568,205.479 255.127 C 201.631 257.673,195.612 255.990,193.652 251.821 C 189.976 244.002,197.176 235.752,204.621 239.252 M245.051 239.036 C 253.496 242.506,250.831 254.400,241.608 254.400 C 236.062 254.400,232.541 250.187,233.385 244.559 C 234.068 240.008,240.270 237.072,245.051 239.036 " stroke="none" fill="#2f3046" fill-rule="evenodd"></path><path id="path1" d="M120.200 84.490 C 119.320 84.941,118.150 85.510,117.600 85.754 C 117.050 85.999,116.510 86.295,116.400 86.413 C 116.290 86.531,115.345 87.318,114.300 88.162 C 113.255 89.006,112.400 89.905,112.400 90.160 C 112.400 90.415,112.040 90.883,111.600 91.200 C 111.160 91.517,110.800 92.097,110.800 92.488 C 110.800 92.880,110.665 93.201,110.500 93.203 C 109.930 93.209,109.200 95.366,109.200 97.046 C 109.200 97.974,108.995 98.802,108.745 98.885 C 108.291 99.036,108.166 183.900,108.619 184.353 C 108.726 184.459,109.026 184.334,109.287 184.073 C 109.621 183.739,112.251 183.600,118.270 183.600 L 126.779 183.600 127.354 182.500 C 130.107 177.230,138.073 176.135,142.373 180.435 C 146.203 184.265,146.290 190.319,142.570 194.150 C 138.272 198.575,129.411 197.337,127.201 192.002 L 126.703 190.800 118.139 190.800 C 110.895 190.800,109.539 190.707,109.345 190.200 C 108.558 188.150,108.400 191.533,108.400 210.447 L 108.400 231.293 109.300 231.052 C 109.795 230.919,113.913 230.808,118.451 230.805 L 126.703 230.800 127.206 229.586 C 130.976 220.485,145.200 224.183,145.200 234.265 C 145.200 243.618,131.604 247.330,127.366 239.135 L 126.779 238.000 118.177 238.000 C 110.914 238.000,109.539 237.907,109.346 237.402 C 108.599 235.457,108.400 238.869,108.400 253.624 C 108.400 264.275,108.540 270.000,108.800 270.000 C 109.020 270.000,109.200 270.720,109.200 271.600 C 109.200 272.480,109.380 273.200,109.600 273.200 C 109.820 273.200,110.000 273.560,110.000 274.000 C 110.000 274.440,110.180 274.800,110.400 274.800 C 110.620 274.800,110.800 275.100,110.800 275.466 C 110.800 276.285,116.574 282.000,117.402 282.000 C 117.731 282.000,118.000 282.180,118.000 282.400 C 118.000 282.620,118.360 282.800,118.800 282.800 C 119.240 282.800,119.600 282.980,119.600 283.200 C 119.600 283.420,120.305 283.600,121.167 283.600 C 122.028 283.600,122.793 283.779,122.867 283.997 C 123.056 284.563,293.980 284.580,294.545 284.015 C 294.773 283.787,295.520 283.600,296.205 283.600 C 296.896 283.600,297.831 283.245,298.308 282.800 C 298.780 282.360,299.371 282.000,299.622 282.000 C 300.289 282.000,302.372 280.443,304.200 278.578 C 306.041 276.700,306.214 276.428,308.350 272.062 L 309.200 270.324 309.200 183.786 C 309.200 126.525,309.065 97.164,308.800 97.000 C 308.580 96.864,308.400 96.313,308.400 95.776 C 308.400 95.239,308.220 94.800,308.000 94.800 C 307.780 94.800,307.600 94.528,307.600 94.195 C 307.600 92.388,303.679 87.980,300.694 86.432 C 300.092 86.120,299.600 85.715,299.600 85.532 C 299.600 85.350,299.328 85.200,298.995 85.200 C 298.662 85.200,298.032 85.020,297.595 84.800 C 297.158 84.580,296.442 84.220,296.005 84.000 C 294.182 83.082,122.012 83.562,120.200 84.490 M163.549 107.238 C 165.179 108.757,165.200 109.208,165.200 142.639 L 165.200 175.225 160.500 175.113 L 155.800 175.000 155.684 143.600 C 155.556 109.090,155.552 109.187,157.203 107.535 C 158.687 106.051,162.104 105.892,163.549 107.238 M139.513 130.220 C 145.775 132.832,147.268 141.530,142.248 146.147 C 137.899 150.147,130.608 149.081,127.385 143.976 L 126.400 142.416 117.900 142.308 L 109.400 142.200 109.400 139.000 L 109.400 135.800 118.000 135.683 L 126.600 135.567 127.600 133.939 C 129.926 130.154,135.318 128.471,139.513 130.220 M206.515 143.202 C 213.171 145.693,214.800 150.123,214.800 165.728 C 214.800 176.474,215.267 175.667,209.143 175.514 L 204.600 175.400 204.395 165.400 C 204.129 152.403,203.690 151.400,198.267 151.400 C 192.119 151.400,191.221 153.210,191.209 165.620 C 191.202 172.092,191.064 174.776,190.720 175.120 C 190.173 175.667,182.124 175.793,181.295 175.267 C 180.900 175.016,180.813 171.487,180.895 158.974 L 181.000 143.000 185.568 142.886 C 190.445 142.765,190.782 142.886,190.794 144.762 C 190.800 145.660,190.847 145.681,191.515 145.077 C 194.663 142.228,201.595 141.362,206.515 143.202 M280.694 142.563 C 288.939 144.332,294.427 151.395,293.933 159.600 L 293.800 161.800 281.900 161.906 C 268.560 162.025,268.695 161.988,271.083 164.826 C 273.877 168.146,280.927 168.658,284.773 165.820 C 286.443 164.588,286.841 164.774,289.606 168.084 L 291.695 170.584 289.836 172.268 C 282.030 179.335,265.677 176.204,261.059 166.758 C 254.675 153.700,266.231 139.460,280.694 142.563 M233.800 152.900 C 236.000 158.345,237.970 162.845,238.179 162.900 C 238.387 162.955,240.459 158.500,242.783 153.000 L 247.010 143.000 251.705 142.887 C 257.493 142.748,257.397 141.836,252.755 152.800 C 250.752 157.530,247.950 164.190,246.528 167.600 C 242.873 176.368,243.687 175.600,238.040 175.600 C 232.317 175.600,233.294 176.624,228.858 165.979 C 226.892 161.260,223.998 154.352,222.427 150.627 C 218.900 142.266,218.747 142.747,224.892 142.888 L 229.800 143.000 233.800 152.900 M274.262 150.562 C 271.846 151.457,269.137 154.527,269.807 155.612 C 270.244 156.319,283.583 156.109,283.859 155.390 C 284.959 152.523,278.178 149.112,274.262 150.562 M268.590 183.212 C 279.806 183.787,279.912 183.862,278.856 190.400 C 278.625 191.830,278.237 194.350,277.993 196.000 C 277.750 197.650,277.391 199.990,277.196 201.200 C 277.001 202.410,276.642 204.840,276.399 206.600 C 275.292 214.607,274.309 214.997,269.671 209.263 C 268.130 207.358,266.402 205.362,265.832 204.827 L 264.793 203.854 263.497 204.804 C 262.784 205.326,257.986 209.184,252.835 213.377 C 239.630 224.127,239.145 224.516,237.738 225.509 C 235.419 227.147,235.587 227.272,227.501 217.900 C 224.928 214.918,222.805 212.800,222.388 212.800 C 221.781 212.800,219.646 213.958,210.600 219.194 C 191.116 230.470,190.890 230.573,190.205 228.414 C 189.713 226.867,188.471 228.043,212.578 207.244 C 218.725 201.940,223.989 197.600,224.274 197.600 C 224.877 197.600,226.393 199.191,232.091 205.800 C 234.367 208.440,236.583 210.647,237.015 210.704 C 238.231 210.865,257.200 195.526,257.200 194.381 C 257.200 194.199,255.853 192.328,254.207 190.222 C 249.694 184.448,249.775 184.603,250.599 183.345 L 251.290 182.291 255.745 182.536 C 258.195 182.671,263.975 182.975,268.590 183.212 M165.200 220.592 L 165.200 251.585 166.100 251.794 C 166.595 251.910,169.250 252.048,172.000 252.102 L 177.000 252.200 177.000 256.800 L 177.000 261.400 166.400 261.400 L 155.800 261.400 155.697 226.000 C 155.640 206.530,155.679 190.375,155.784 190.100 C 155.922 189.740,157.266 189.600,160.587 189.600 L 165.200 189.600 165.200 220.592 M206.194 231.415 C 215.379 233.808,220.775 243.099,218.165 252.027 C 213.246 268.848,186.576 267.648,183.550 250.470 C 181.331 237.876,193.071 227.997,206.194 231.415 M244.040 231.233 C 245.931 231.835,247.238 232.458,248.354 233.289 C 249.680 234.277,249.931 234.191,250.075 232.700 L 250.200 231.400 254.568 231.286 C 257.793 231.201,259.021 231.306,259.261 231.686 C 259.755 232.464,259.670 258.387,259.162 261.723 C 257.344 273.675,244.540 278.978,230.400 273.637 C 225.088 271.631,224.933 271.302,227.300 267.053 C 229.206 263.631,229.224 263.622,231.652 264.980 C 239.657 269.454,249.200 266.986,249.200 260.442 L 249.200 259.258 246.737 260.529 C 235.082 266.543,221.068 255.660,224.016 242.883 C 225.975 234.387,235.869 228.631,244.040 231.233 M108.109 233.600 C 108.109 234.590,108.187 234.995,108.282 234.500 C 108.378 234.005,108.378 233.195,108.282 232.700 C 108.187 232.205,108.109 232.610,108.109 233.600 M198.456 239.488 C 194.084 240.318,191.943 248.798,195.106 252.758 C 199.890 258.749,208.400 255.334,208.400 247.423 C 208.400 241.345,204.610 238.321,198.456 239.488 M238.600 239.602 C 232.890 241.397,232.311 250.143,237.729 252.766 C 242.427 255.040,248.174 252.751,249.201 248.196 C 250.539 242.264,244.836 237.641,238.600 239.602 " stroke="none" fill="#dcdcdc" fill-rule="evenodd"></path><path id="path2" d="M158.522 107.182 C 155.822 108.828,155.985 106.468,156.098 142.433 L 156.200 175.000 160.400 175.000 L 164.600 175.000 164.702 142.289 C 164.816 105.890,164.980 108.136,162.131 106.945 C 160.420 106.231,160.042 106.255,158.522 107.182 M250.973 183.370 C 250.123 183.992,250.344 184.688,252.077 186.854 C 258.475 194.847,258.332 194.501,256.100 196.534 C 251.382 200.833,237.911 211.200,237.044 211.200 C 236.377 211.200,235.529 210.554,234.286 209.100 C 233.299 207.945,230.836 205.065,228.812 202.700 C 226.377 199.853,224.859 198.400,224.321 198.400 C 223.721 198.400,213.953 206.318,212.000 208.388 C 211.890 208.505,210.630 209.590,209.200 210.800 C 205.839 213.644,205.362 214.055,200.600 218.208 C 198.400 220.126,195.294 222.794,193.699 224.137 C 190.499 226.829,189.901 227.846,191.030 228.671 C 192.089 229.446,191.957 229.505,201.400 223.997 C 202.408 223.409,211.944 217.897,216.800 215.095 C 223.114 211.451,222.569 211.380,226.802 216.400 C 228.008 217.830,229.086 219.090,229.198 219.200 C 229.309 219.310,230.462 220.629,231.761 222.130 C 235.008 225.887,235.684 226.298,237.100 225.377 C 238.143 224.700,245.975 218.495,246.400 218.009 C 246.510 217.884,249.390 215.537,252.800 212.795 C 256.210 210.053,259.360 207.507,259.800 207.138 C 265.315 202.514,264.569 202.415,269.591 208.432 C 274.850 214.733,274.719 214.829,276.416 203.498 C 276.655 201.904,277.012 199.610,277.209 198.400 C 277.407 197.190,277.771 194.670,278.018 192.800 C 278.266 190.930,278.636 188.630,278.842 187.689 C 279.505 184.661,278.698 184.000,274.336 184.000 C 272.797 184.000,269.437 183.829,266.869 183.620 C 257.766 182.880,251.772 182.786,250.973 183.370 M156.190 190.086 C 156.082 190.369,156.040 206.530,156.097 226.000 L 156.200 261.400 166.400 261.400 L 176.600 261.400 176.600 256.800 L 176.600 252.200 170.702 252.089 L 164.805 251.979 164.702 220.889 L 164.600 189.800 160.493 189.686 C 157.431 189.601,156.336 189.703,156.190 190.086 " stroke="none" fill="#2dcc74" fill-rule="evenodd"></path><path id="path3" d="M134.291 130.289 C 135.001 130.377,136.261 130.379,137.091 130.292 C 137.921 130.205,137.340 130.133,135.800 130.131 C 134.260 130.129,133.581 130.200,134.291 130.289 M129.843 132.046 C 128.815 132.951,127.707 134.256,127.381 134.946 C 127.055 135.636,127.016 135.866,127.294 135.457 C 128.602 133.534,129.447 132.626,130.923 131.557 C 131.801 130.921,132.338 130.400,132.116 130.400 C 131.894 130.400,130.871 131.141,129.843 132.046 M139.990 131.250 C 141.891 132.409,143.474 134.287,144.162 136.200 C 144.522 137.204,144.749 137.494,144.768 136.978 C 144.839 135.142,140.794 130.397,139.162 130.401 C 138.853 130.402,139.225 130.784,139.990 131.250 M144.446 140.867 C 144.421 141.234,144.296 141.864,144.170 142.267 C 143.952 142.962,143.963 142.963,144.397 142.287 C 144.648 141.896,144.773 141.266,144.673 140.887 C 144.511 140.268,144.488 140.266,144.446 140.867 M109.732 141.800 C 109.815 142.046,113.234 142.242,118.608 142.308 C 123.416 142.367,127.211 142.277,127.043 142.108 C 126.563 141.627,109.574 141.325,109.732 141.800 M197.600 142.760 C 197.050 142.914,198.490 143.040,200.800 143.040 C 203.110 143.040,204.550 142.914,204.000 142.760 C 203.450 142.606,202.010 142.480,200.800 142.480 C 199.590 142.480,198.150 142.606,197.600 142.760 M273.600 142.760 C 273.050 142.914,274.490 143.040,276.800 143.040 C 279.110 143.040,280.550 142.914,280.000 142.760 C 279.450 142.606,278.010 142.480,276.800 142.480 C 275.590 142.480,274.150 142.606,273.600 142.760 M127.224 142.938 C 127.137 144.185,131.608 148.000,133.157 148.000 C 133.487 148.000,132.822 147.534,131.680 146.965 C 129.758 146.007,128.967 145.283,127.724 143.343 C 127.461 142.934,127.236 142.752,127.224 142.938 M142.520 144.774 C 141.821 145.607,140.473 146.665,139.524 147.124 C 138.576 147.584,138.034 147.969,138.320 147.980 C 139.564 148.028,144.551 144.018,143.970 143.437 C 143.872 143.339,143.220 143.940,142.520 144.774 M181.200 158.976 C 181.200 167.653,181.335 174.836,181.500 174.938 C 181.665 175.040,181.800 167.941,181.800 159.162 C 181.800 150.383,181.665 143.200,181.500 143.200 C 181.335 143.200,181.200 150.299,181.200 158.976 M189.931 144.800 C 190.104 146.614,190.410 146.732,192.001 145.600 C 192.619 145.159,193.907 144.452,194.862 144.028 C 195.818 143.604,196.369 143.244,196.087 143.228 C 195.428 143.192,191.736 145.056,191.405 145.592 C 190.886 146.432,190.400 145.953,190.400 144.600 C 190.400 143.830,190.260 143.200,190.089 143.200 C 189.919 143.200,189.848 143.920,189.931 144.800 M206.939 144.175 C 209.166 145.266,211.009 146.898,211.865 148.537 C 212.192 149.163,212.555 149.578,212.673 149.460 C 212.878 149.255,211.530 147.120,210.567 146.125 C 209.711 145.240,206.247 143.200,205.622 143.213 C 205.280 143.219,205.872 143.652,206.939 144.175 M229.949 145.387 C 230.505 146.590,231.015 147.518,231.084 147.450 C 231.291 147.243,229.514 143.200,229.216 143.200 C 229.063 143.200,229.393 144.184,229.949 145.387 M270.400 143.600 C 269.867 143.945,269.867 143.988,270.400 143.988 C 270.730 143.988,271.270 143.813,271.600 143.600 C 272.133 143.255,272.133 143.212,271.600 143.212 C 271.270 143.212,270.730 143.387,270.400 143.600 M282.000 143.600 C 282.330 143.813,282.870 143.988,283.200 143.988 C 283.733 143.988,283.733 143.945,283.200 143.600 C 282.870 143.387,282.330 143.212,282.000 143.212 C 281.467 143.212,281.467 143.255,282.000 143.600 M255.055 145.455 C 254.676 146.249,254.453 146.986,254.559 147.093 C 254.666 147.199,255.036 146.609,255.382 145.782 C 256.198 143.829,255.949 143.580,255.055 145.455 M286.238 145.528 C 288.882 147.239,290.364 148.985,291.811 152.093 C 292.351 153.252,292.794 153.973,292.796 153.696 C 292.817 151.055,286.605 144.000,284.260 144.000 C 284.049 144.000,284.939 144.688,286.238 145.528 M265.395 146.488 C 263.456 148.195,260.784 151.926,260.819 152.881 C 260.829 153.166,261.283 152.544,261.827 151.498 C 262.840 149.553,265.410 146.685,267.200 145.503 C 267.750 145.139,268.000 144.833,267.756 144.821 C 267.512 144.809,266.450 145.560,265.395 146.488 M221.600 147.751 C 221.600 148.218,222.877 150.857,223.029 150.705 C 223.238 150.495,222.088 147.600,221.795 147.600 C 221.688 147.600,221.600 147.668,221.600 147.751 M244.623 149.406 C 243.760 151.472,243.874 151.706,244.847 149.862 C 245.293 149.016,245.565 148.232,245.452 148.119 C 245.339 148.006,244.966 148.585,244.623 149.406 M272.505 150.623 C 269.897 152.187,267.932 155.981,269.433 156.557 C 270.943 157.137,284.417 156.820,284.656 156.199 C 285.172 154.854,282.460 150.400,281.125 150.400 C 280.915 150.400,281.379 151.000,282.156 151.732 C 283.427 152.932,284.400 154.619,284.400 155.626 C 284.400 155.845,281.237 156.000,276.773 156.000 L 269.146 156.000 269.419 155.100 C 270.185 152.568,271.887 151.030,275.200 149.873 C 275.620 149.726,275.560 149.655,275.000 149.635 C 274.560 149.620,273.437 150.065,272.505 150.623 M195.738 150.706 C 195.484 150.868,196.592 151.000,198.200 151.000 C 199.808 151.000,200.916 150.868,200.662 150.706 C 200.408 150.544,199.300 150.412,198.200 150.412 C 197.100 150.412,195.992 150.544,195.738 150.706 M193.017 152.292 C 190.696 154.613,190.616 155.014,190.400 165.463 C 190.290 170.777,190.335 175.041,190.500 174.939 C 190.665 174.837,190.801 170.848,190.802 166.076 C 190.805 156.095,191.039 154.819,193.261 152.700 C 194.126 151.875,194.671 151.200,194.471 151.200 C 194.272 151.200,193.618 151.691,193.017 152.292 M202.737 152.399 C 203.396 153.058,204.057 154.151,204.206 154.827 C 204.355 155.504,204.571 155.963,204.686 155.847 C 205.334 155.200,202.965 151.200,201.934 151.200 C 201.716 151.200,202.078 151.739,202.737 152.399 M251.444 154.044 C 250.857 155.400,250.466 156.599,250.577 156.710 C 250.687 156.821,250.941 156.481,251.141 155.955 C 251.341 155.430,251.799 154.297,252.158 153.439 C 252.517 152.580,252.744 151.810,252.662 151.729 C 252.580 151.647,252.032 152.689,251.444 154.044 M213.938 163.610 C 214.065 172.496,213.994 174.565,213.547 174.878 C 213.101 175.190,213.111 175.231,213.600 175.097 C 214.277 174.913,214.714 156.324,214.098 153.946 C 213.924 153.274,213.852 157.623,213.938 163.610 M242.459 154.445 C 242.259 154.970,241.801 156.103,241.442 156.961 C 241.083 157.820,240.856 158.590,240.938 158.671 C 241.020 158.753,241.568 157.711,242.156 156.356 C 242.743 155.000,243.134 153.801,243.023 153.690 C 242.913 153.579,242.659 153.919,242.459 154.445 M260.273 154.153 C 260.123 154.545,260.011 155.166,260.025 155.533 C 260.042 155.975,260.181 155.874,260.437 155.234 C 260.649 154.703,260.761 154.082,260.685 153.854 C 260.609 153.627,260.424 153.761,260.273 154.153 M292.979 157.952 C 292.991 159.956,293.135 161.596,293.300 161.598 C 293.682 161.601,293.641 156.046,293.251 155.055 C 293.090 154.645,292.967 155.949,292.979 157.952 M224.818 155.251 C 224.780 155.780,226.057 158.476,226.252 158.281 C 226.365 158.168,226.093 157.384,225.647 156.538 C 225.200 155.692,224.827 155.113,224.818 155.251 M259.720 159.200 C 259.720 160.410,259.795 160.905,259.887 160.300 C 259.978 159.695,259.978 158.705,259.887 158.100 C 259.795 157.495,259.720 157.990,259.720 159.200 M204.880 166.300 C 204.836 171.195,204.935 175.200,205.100 175.201 C 205.265 175.201,205.354 172.546,205.297 169.301 C 205.105 158.382,204.962 157.344,204.880 166.300 M248.655 160.655 C 248.276 161.449,248.053 162.186,248.159 162.293 C 248.266 162.399,248.636 161.809,248.982 160.982 C 249.798 159.029,249.549 158.780,248.655 160.655 M236.000 160.165 C 236.000 161.449,238.077 164.834,238.600 164.400 C 238.930 164.126,239.200 163.722,239.200 163.502 C 239.200 163.273,238.952 163.308,238.619 163.584 C 238.082 164.030,236.800 162.051,236.800 160.775 C 236.800 160.595,236.620 160.336,236.400 160.200 C 236.180 160.064,236.000 160.048,236.000 160.165 M269.050 161.919 C 268.942 162.095,268.996 162.470,269.171 162.753 C 269.403 163.128,269.548 163.042,269.707 162.434 C 269.917 161.629,269.454 161.266,269.050 161.919 M260.046 162.800 C 260.027 163.350,260.187 164.070,260.400 164.400 C 260.894 165.164,260.894 164.342,260.400 162.800 L 260.080 161.800 260.046 162.800 M228.151 163.200 C 228.471 164.392,229.728 167.409,230.060 167.780 C 230.716 168.513,230.363 167.406,229.176 165.000 C 228.524 163.680,228.063 162.870,228.151 163.200 M269.600 163.833 C 269.602 164.924,273.475 168.014,274.800 167.983 C 275.130 167.975,274.680 167.617,273.800 167.188 C 272.920 166.759,271.615 165.746,270.900 164.937 C 270.185 164.128,269.600 163.632,269.600 163.833 M260.804 165.422 C 260.789 167.117,265.201 171.975,268.087 173.441 C 270.783 174.811,271.015 174.614,268.400 173.174 C 265.623 171.646,263.450 169.560,261.966 167.000 C 261.329 165.900,260.806 165.190,260.804 165.422 M284.400 166.357 C 283.850 166.760,282.860 167.280,282.200 167.513 C 281.387 167.800,281.247 167.947,281.765 167.968 C 282.482 167.998,286.000 166.183,286.000 165.783 C 286.000 165.418,285.379 165.641,284.400 166.357 M288.273 167.633 C 289.333 168.751,290.335 169.906,290.501 170.199 C 290.817 170.758,288.879 172.511,286.600 173.727 C 285.940 174.080,285.590 174.375,285.822 174.384 C 286.430 174.407,289.665 172.273,290.570 171.252 C 291.336 170.387,291.333 170.375,290.123 169.091 C 289.454 168.381,288.490 167.305,287.981 166.700 C 287.472 166.095,286.896 165.600,286.701 165.600 C 286.505 165.600,287.213 166.515,288.273 167.633 M245.418 168.218 C 245.072 169.046,244.871 169.805,244.971 169.905 C 245.071 170.005,245.436 169.409,245.782 168.582 C 246.128 167.754,246.329 166.995,246.229 166.895 C 246.129 166.795,245.764 167.391,245.418 168.218 M277.100 168.289 C 277.815 168.378,278.985 168.378,279.700 168.289 C 280.415 168.201,279.830 168.128,278.400 168.128 C 276.970 168.128,276.385 168.201,277.100 168.289 M231.232 170.489 C 231.159 171.148,233.191 175.200,233.594 175.200 C 233.908 175.200,233.907 175.059,233.589 174.700 C 233.345 174.425,232.722 173.300,232.204 172.200 C 231.687 171.100,231.249 170.330,231.232 170.489 M271.400 174.800 C 271.840 174.989,272.470 175.144,272.800 175.144 C 273.178 175.144,273.104 175.017,272.600 174.800 C 272.160 174.611,271.530 174.456,271.200 174.456 C 270.822 174.456,270.896 174.583,271.400 174.800 M283.400 174.800 L 282.600 175.144 283.400 175.166 C 283.840 175.178,284.470 175.013,284.800 174.800 C 285.595 174.286,284.596 174.286,283.400 174.800 M276.200 175.629 C 277.300 175.813,279.100 175.813,280.200 175.628 C 281.937 175.338,281.674 175.294,278.200 175.294 C 274.726 175.294,274.463 175.338,276.200 175.629 M139.659 179.206 C 140.461 179.630,141.766 180.735,142.559 181.661 C 143.352 182.586,144.000 183.150,144.000 182.912 C 144.000 182.238,139.615 178.398,138.868 178.418 C 138.498 178.427,138.851 178.779,139.659 179.206 M129.591 180.356 C 128.826 180.991,127.877 182.116,127.483 182.856 L 126.765 184.200 127.683 183.005 C 128.187 182.348,129.220 181.223,129.978 180.505 C 131.684 178.889,131.460 178.803,129.591 180.356 M144.244 184.600 C 144.573 186.071,144.802 186.390,144.794 185.367 C 144.791 184.945,144.605 184.330,144.382 184.000 C 144.085 183.562,144.048 183.724,144.244 184.600 M109.366 184.545 C 109.251 184.844,109.214 186.149,109.284 187.445 L 109.412 189.800 109.606 186.899 C 109.801 183.988,109.754 183.533,109.366 184.545 M144.446 189.467 C 144.421 189.724,144.284 190.264,144.141 190.667 C 143.940 191.236,143.994 191.297,144.379 190.942 C 144.652 190.691,144.789 190.151,144.684 189.742 C 144.579 189.334,144.472 189.210,144.446 189.467 M127.209 191.314 C 127.178 192.392,130.966 196.000,132.129 196.000 C 132.353 196.000,131.696 195.443,130.669 194.762 C 129.641 194.082,128.796 193.407,128.791 193.262 C 128.778 192.869,127.219 190.950,127.209 191.314 M142.232 193.484 C 141.370 194.478,141.010 195.069,141.432 194.796 C 142.311 194.230,144.167 192.032,143.947 191.818 C 143.866 191.740,143.095 192.490,142.232 193.484 M133.400 196.400 C 134.392 196.826,136.670 196.826,138.000 196.400 C 138.682 196.182,137.982 196.076,135.800 196.068 C 133.671 196.060,132.868 196.171,133.400 196.400 M132.115 225.390 C 130.521 226.083,127.413 229.142,127.104 230.323 C 126.774 231.587,127.030 231.409,128.001 229.700 C 129.709 226.694,132.066 225.400,135.831 225.400 C 137.642 225.400,138.916 225.268,138.662 225.106 C 137.880 224.609,133.473 224.800,132.115 225.390 M141.098 226.980 C 142.032 227.793,143.067 228.846,143.398 229.318 C 143.729 229.791,144.000 229.976,144.000 229.729 C 144.000 229.167,141.376 226.516,140.244 225.935 C 139.780 225.697,140.164 226.167,141.098 226.980 M144.028 230.676 C 144.118 231.715,144.744 232.596,144.772 231.724 C 144.787 231.242,144.620 230.736,144.400 230.600 C 144.180 230.464,144.013 230.498,144.028 230.676 M109.366 231.745 C 109.251 232.044,109.214 233.349,109.284 234.645 L 109.412 237.000 109.606 234.099 C 109.801 231.188,109.754 230.733,109.366 231.745 M196.600 231.614 C 196.078 231.848,196.563 231.888,198.000 231.732 C 199.210 231.600,200.275 231.426,200.367 231.346 C 200.721 231.036,197.357 231.275,196.600 231.614 M201.633 231.350 C 201.725 231.432,202.880 231.604,204.200 231.731 C 205.755 231.880,206.248 231.842,205.600 231.621 C 204.614 231.284,201.310 231.059,201.633 231.350 M235.800 231.620 C 235.261 231.865,235.654 231.905,237.000 231.741 C 238.100 231.607,239.075 231.431,239.167 231.349 C 239.517 231.036,236.561 231.274,235.800 231.620 M240.833 231.344 C 240.925 231.424,241.810 231.606,242.800 231.750 C 244.058 231.933,244.419 231.891,244.000 231.612 C 243.460 231.253,240.432 230.997,240.833 231.344 M250.399 231.886 C 250.399 232.059,252.244 232.200,254.499 232.200 L 258.600 232.200 258.600 247.518 C 258.600 255.942,258.737 262.173,258.905 261.363 C 259.073 260.554,259.163 253.571,259.105 245.846 L 259.000 231.800 254.700 231.686 C 252.335 231.624,250.400 231.714,250.399 231.886 M193.800 232.400 C 193.508 232.873,193.899 232.873,195.000 232.400 C 195.771 232.069,195.769 232.055,194.924 232.028 C 194.442 232.013,193.936 232.180,193.800 232.400 M208.600 232.973 C 211.625 234.374,213.756 236.112,215.216 238.365 C 215.941 239.484,216.611 240.322,216.706 240.228 C 217.835 239.099,209.440 231.919,207.113 232.023 C 206.831 232.036,207.500 232.463,208.600 232.973 M232.181 232.918 C 229.073 234.611,225.004 238.737,225.728 239.462 C 225.845 239.579,226.210 239.153,226.540 238.516 C 227.431 236.794,230.565 234.073,232.922 232.975 C 234.065 232.443,234.730 232.014,234.400 232.022 C 234.070 232.030,233.071 232.433,232.181 232.918 M190.773 233.931 C 188.938 235.095,185.600 238.583,185.600 239.336 C 185.600 239.825,185.775 239.639,187.375 237.457 C 187.998 236.608,189.590 235.213,190.915 234.357 C 192.240 233.501,193.151 232.800,192.940 232.800 C 192.729 232.800,191.754 233.309,190.773 233.931 M248.015 233.984 C 248.777 234.635,249.670 235.169,250.000 235.172 C 250.418 235.174,250.359 235.036,249.805 234.715 C 249.367 234.461,248.658 233.927,248.229 233.527 C 247.800 233.127,247.265 232.800,247.040 232.800 C 246.814 232.800,247.253 233.333,248.015 233.984 M144.446 236.067 C 144.421 236.434,144.296 237.064,144.170 237.467 C 143.952 238.162,143.963 238.163,144.397 237.487 C 144.648 237.096,144.773 236.466,144.673 236.087 C 144.511 235.468,144.488 235.466,144.446 236.067 M127.164 238.200 C 127.858 239.557,128.387 240.222,128.394 239.744 C 128.397 239.494,128.030 238.864,127.577 238.344 C 126.931 237.602,126.842 237.571,127.164 238.200 M143.212 239.178 C 142.962 239.644,142.021 240.559,141.119 241.213 C 140.218 241.866,139.670 242.400,139.901 242.400 C 140.541 242.400,144.239 238.918,143.932 238.605 C 143.785 238.455,143.461 238.713,143.212 239.178 M198.683 238.739 C 198.289 238.895,199.315 239.022,200.963 239.022 C 202.611 239.022,203.744 238.885,203.480 238.717 C 202.887 238.340,199.656 238.355,198.683 238.739 M239.100 238.733 C 238.715 238.886,239.827 239.011,241.570 239.011 C 243.314 239.011,244.529 238.876,244.270 238.711 C 243.688 238.341,240.051 238.357,239.100 238.733 M195.247 240.847 C 194.341 241.753,193.602 242.698,193.604 242.947 C 193.607 243.196,194.060 242.828,194.611 242.128 C 195.162 241.429,196.105 240.490,196.707 240.041 C 197.308 239.592,197.596 239.220,197.347 239.213 C 197.098 239.206,196.153 239.941,195.247 240.847 M204.620 239.501 C 204.829 239.667,205.699 240.432,206.553 241.201 C 207.927 242.439,208.028 242.476,207.425 241.528 C 207.051 240.938,206.313 240.173,205.786 239.828 C 204.821 239.195,203.913 238.941,204.620 239.501 M235.389 240.989 C 234.405 241.974,233.608 243.099,233.618 243.489 C 233.628 243.918,233.955 243.595,234.441 242.673 C 234.885 241.832,235.867 240.780,236.624 240.333 C 238.046 239.494,238.297 239.200,237.589 239.200 C 237.364 239.200,236.374 240.005,235.389 240.989 M246.431 240.110 C 247.174 240.610,248.190 241.626,248.690 242.369 C 249.191 243.111,249.600 243.488,249.600 243.207 C 249.600 242.925,248.814 241.908,247.853 240.947 C 246.892 239.986,245.875 239.200,245.593 239.200 C 245.312 239.200,245.689 239.609,246.431 240.110 M128.800 240.186 C 128.800 240.863,132.667 243.227,133.684 243.172 C 133.968 243.156,133.390 242.785,132.400 242.346 C 131.410 241.908,130.195 241.169,129.700 240.705 C 129.205 240.241,128.800 240.007,128.800 240.186 M184.623 241.406 C 184.281 242.226,184.006 243.281,184.013 243.749 C 184.020 244.217,184.367 243.612,184.784 242.404 C 185.657 239.875,185.547 239.194,184.623 241.406 M224.252 242.900 C 223.931 244.098,223.985 249.221,224.328 250.085 C 224.478 250.462,224.600 248.797,224.600 246.385 C 224.600 241.590,224.601 241.599,224.252 242.900 M137.800 242.800 C 137.029 243.131,137.031 243.145,137.876 243.172 C 138.358 243.187,138.864 243.020,139.000 242.800 C 139.292 242.327,138.901 242.327,137.800 242.800 M217.800 247.361 C 217.800 249.896,217.922 251.662,218.072 251.285 C 218.415 250.420,218.407 244.907,218.060 243.676 C 217.917 243.168,217.800 244.827,217.800 247.361 M193.052 244.500 C 192.714 245.762,192.752 250.105,193.106 250.662 C 193.268 250.916,193.400 249.431,193.400 247.362 C 193.400 243.225,193.398 243.209,193.052 244.500 M249.672 246.400 C 249.672 248.676,249.719 248.838,250.048 247.700 C 250.281 246.890,250.281 245.910,250.048 245.100 C 249.719 243.962,249.672 244.124,249.672 246.400 M233.320 246.400 C 233.320 247.610,233.395 248.105,233.487 247.500 C 233.578 246.895,233.578 245.905,233.487 245.300 C 233.395 244.695,233.320 245.190,233.320 246.400 M208.931 247.400 C 208.933 248.940,209.005 249.521,209.092 248.691 C 209.179 247.861,209.177 246.601,209.089 245.891 C 209.000 245.181,208.929 245.860,208.931 247.400 M183.724 247.400 C 183.726 248.720,183.801 249.212,183.890 248.493 C 183.979 247.774,183.977 246.694,183.886 246.093 C 183.795 245.492,183.722 246.080,183.724 247.400 M249.008 249.975 C 248.241 252.392,244.140 254.246,240.408 253.863 C 238.972 253.716,238.420 253.768,238.808 254.013 C 241.479 255.702,249.600 252.371,249.600 249.586 C 249.600 248.937,249.268 249.156,249.008 249.975 M208.117 251.411 C 207.535 253.047,206.361 254.290,204.540 255.199 C 203.693 255.622,203.273 255.975,203.607 255.984 C 205.252 256.027,209.136 252.007,208.703 250.710 C 208.614 250.441,208.350 250.757,208.117 251.411 M184.019 251.251 C 183.996 252.029,185.175 254.959,185.414 254.720 C 185.506 254.628,185.233 253.663,184.809 252.576 C 184.385 251.489,184.029 250.893,184.019 251.251 M193.600 251.734 C 193.600 252.356,194.903 253.975,195.928 254.625 C 196.876 255.228,196.839 255.127,195.601 253.753 C 194.832 252.899,194.067 252.029,193.901 251.820 C 193.735 251.611,193.600 251.572,193.600 251.734 M225.633 253.400 C 225.587 254.769,231.549 260.584,232.265 259.868 C 232.380 259.753,231.957 259.391,231.325 259.064 C 230.187 258.476,227.044 255.282,226.124 253.778 C 225.861 253.350,225.641 253.180,225.633 253.400 M215.816 255.681 C 215.407 256.372,214.432 257.672,213.648 258.569 C 212.585 259.785,212.510 259.946,213.354 259.200 C 214.593 258.105,216.973 254.839,216.718 254.584 C 216.630 254.496,216.224 254.990,215.816 255.681 M185.621 255.457 C 185.593 256.066,189.069 259.907,190.147 260.458 C 190.616 260.697,190.091 260.017,188.980 258.947 C 187.868 257.876,186.663 256.550,186.301 256.000 C 185.938 255.450,185.633 255.206,185.621 255.457 M200.300 256.282 C 200.795 256.378,201.605 256.378,202.100 256.282 C 202.595 256.187,202.190 256.109,201.200 256.109 C 200.210 256.109,199.805 256.187,200.300 256.282 M247.055 259.444 C 244.666 261.109,245.146 261.242,247.700 259.623 L 249.556 258.445 249.722 260.123 L 249.888 261.800 249.844 260.031 C 249.789 257.822,249.475 257.756,247.055 259.444 M209.800 261.234 C 208.700 261.865,207.930 262.386,208.089 262.391 C 208.651 262.409,212.000 260.636,212.000 260.320 C 212.000 260.144,211.955 260.019,211.900 260.043 C 211.845 260.067,210.900 260.602,209.800 261.234 M191.200 260.996 C 191.200 261.270,193.649 262.484,193.832 262.301 C 193.919 262.214,193.362 261.844,192.595 261.478 C 191.828 261.112,191.200 260.895,191.200 260.996 M235.400 261.200 C 235.840 261.389,236.740 261.535,237.400 261.525 L 238.600 261.505 237.400 261.200 C 236.740 261.032,235.840 260.886,235.400 260.875 L 234.600 260.856 235.400 261.200 M242.400 261.200 L 241.400 261.520 242.400 261.532 C 242.950 261.538,243.760 261.389,244.200 261.200 L 245.000 260.856 244.200 260.868 C 243.760 260.874,242.950 261.024,242.400 261.200 M248.574 263.772 C 248.067 264.772,247.141 265.745,246.174 266.293 C 245.308 266.785,244.853 267.190,245.162 267.193 C 246.544 267.210,249.958 263.493,249.524 262.445 C 249.456 262.280,249.028 262.877,248.574 263.772 M194.800 262.800 C 195.130 263.013,195.760 263.178,196.200 263.166 L 197.000 263.144 196.200 262.800 C 195.004 262.286,194.005 262.286,194.800 262.800 M205.800 262.800 L 205.000 263.144 205.800 263.166 C 206.240 263.178,206.870 263.013,207.200 262.800 C 207.995 262.286,206.996 262.286,205.800 262.800 M199.339 263.619 C 200.406 263.798,202.026 263.797,202.939 263.616 C 204.302 263.347,203.954 263.288,201.000 263.291 C 197.822 263.294,197.627 263.332,199.339 263.619 M257.800 264.400 C 257.650 264.873,257.617 265.350,257.727 265.460 C 257.837 265.570,258.050 265.273,258.200 264.800 C 258.350 264.327,258.383 263.850,258.273 263.740 C 258.163 263.630,257.950 263.927,257.800 264.400 M228.962 264.862 C 228.794 265.133,228.851 265.216,229.101 265.061 C 229.335 264.917,230.667 265.339,232.063 265.999 C 233.458 266.659,234.870 267.187,235.200 267.171 C 235.530 267.156,235.160 266.908,234.378 266.620 C 233.596 266.332,232.208 265.714,231.294 265.248 C 229.358 264.260,229.336 264.256,228.962 264.862 M227.440 267.440 C 226.862 268.475,226.460 269.394,226.548 269.482 C 226.636 269.570,227.182 268.795,227.760 267.760 C 228.338 266.725,228.740 265.806,228.652 265.718 C 228.564 265.630,228.018 266.405,227.440 267.440 M256.816 267.162 C 256.273 268.472,253.958 271.057,252.400 272.093 C 251.850 272.459,251.593 272.767,251.828 272.779 C 253.075 272.840,258.202 266.868,257.502 266.169 C 257.395 266.062,257.086 266.509,256.816 267.162 M236.800 267.638 C 238.089 268.002,242.796 268.025,243.683 267.672 C 244.058 267.522,242.438 267.390,240.083 267.378 C 237.727 267.366,236.250 267.483,236.800 267.638 M226.012 270.404 C 226.005 270.736,226.405 271.265,226.900 271.580 C 228.413 272.541,230.732 273.601,231.281 273.582 C 231.566 273.572,230.695 273.052,229.345 272.427 C 227.995 271.802,226.695 270.955,226.457 270.545 C 226.130 269.982,226.021 269.948,226.012 270.404 M232.400 274.000 C 232.730 274.213,233.450 274.373,234.000 274.354 L 235.000 274.320 234.000 274.000 C 232.458 273.506,231.636 273.506,232.400 274.000 M247.800 274.000 L 247.000 274.344 247.800 274.366 C 248.240 274.378,248.870 274.213,249.200 274.000 C 249.995 273.486,248.996 273.486,247.800 274.000 M236.600 274.846 C 238.165 275.184,244.337 275.194,245.523 274.860 C 246.031 274.717,243.961 274.597,240.923 274.593 C 237.885 274.589,235.940 274.703,236.600 274.846 " stroke="none" fill="#84848c" fill-rule="evenodd"></path><path id="path4" d="M157.169 107.569 C 156.526 108.212,156.000 108.972,156.000 109.258 C 156.000 109.544,156.291 109.363,156.647 108.855 C 157.002 108.347,157.857 107.588,158.547 107.167 C 159.449 106.617,159.596 106.403,159.069 106.401 C 158.667 106.401,157.812 106.926,157.169 107.569 M162.000 106.835 C 162.550 107.047,163.404 107.710,163.898 108.310 C 164.392 108.909,164.797 109.200,164.798 108.955 C 164.801 108.178,162.725 106.399,161.845 106.425 C 161.081 106.448,161.096 106.488,162.000 106.835 M164.705 142.400 C 164.647 160.440,164.735 175.200,164.900 175.200 C 165.065 175.200,165.200 160.440,165.200 142.400 C 165.200 124.360,165.112 109.600,165.005 109.600 C 164.897 109.600,164.762 124.360,164.705 142.400 M155.694 142.476 C 155.642 160.228,155.735 174.836,155.900 174.938 C 156.172 175.106,156.169 152.081,155.893 121.800 C 155.835 115.420,155.745 124.724,155.694 142.476 M132.602 129.895 C 131.120 130.269,128.606 132.302,127.600 133.939 L 126.600 135.567 118.000 135.683 L 109.400 135.800 109.281 138.761 C 109.216 140.390,109.306 141.867,109.481 142.043 C 109.657 142.220,109.741 140.932,109.670 139.182 L 109.539 136.000 118.159 136.000 L 126.779 136.000 127.376 134.846 C 129.184 131.350,132.806 129.662,137.542 130.110 C 138.922 130.241,139.489 130.194,139.000 129.990 C 138.135 129.629,133.901 129.566,132.602 129.895 M141.309 131.629 C 144.483 134.246,145.749 139.132,144.254 143.000 C 144.071 143.474,144.195 143.393,144.558 142.800 C 146.601 139.471,143.345 130.400,140.108 130.400 C 139.948 130.400,140.489 130.953,141.309 131.629 M200.105 142.287 C 200.714 142.379,201.614 142.377,202.105 142.282 C 202.597 142.187,202.100 142.111,201.000 142.114 C 199.900 142.117,199.497 142.195,200.105 142.287 M275.700 142.287 C 276.305 142.378,277.295 142.378,277.900 142.287 C 278.505 142.195,278.010 142.120,276.800 142.120 C 275.590 142.120,275.095 142.195,275.700 142.287 M196.200 142.800 C 195.181 143.238,196.232 143.238,197.600 142.800 C 198.404 142.543,198.443 142.477,197.800 142.468 C 197.360 142.462,196.640 142.611,196.200 142.800 M204.000 142.800 C 205.368 143.238,206.419 143.238,205.400 142.800 C 204.960 142.611,204.240 142.462,203.800 142.468 C 203.157 142.477,203.196 142.543,204.000 142.800 M272.000 142.800 C 271.208 143.054,271.167 143.120,271.800 143.120 C 272.240 143.120,273.050 142.976,273.600 142.800 C 274.392 142.546,274.433 142.480,273.800 142.480 C 273.360 142.480,272.550 142.624,272.000 142.800 M281.000 142.962 C 282.100 143.250,283.675 143.773,284.500 144.123 C 285.325 144.473,286.000 144.672,286.000 144.565 C 286.000 144.164,282.492 142.889,280.781 142.667 L 279.000 142.437 281.000 142.962 M181.067 143.067 C 180.417 143.716,180.773 175.104,181.433 175.357 C 182.631 175.817,190.217 175.623,190.720 175.120 C 191.070 174.770,191.176 172.205,191.111 165.620 L 191.023 156.600 190.811 165.800 L 190.600 175.000 186.000 175.000 L 181.400 175.000 181.295 159.113 L 181.191 143.225 185.895 143.099 L 190.600 142.972 185.967 142.886 C 183.418 142.839,181.213 142.920,181.067 143.067 M219.795 143.209 C 219.534 143.630,221.951 150.182,222.255 149.879 C 222.338 149.795,221.865 148.413,221.203 146.808 C 220.542 145.203,220.000 143.735,220.000 143.545 C 220.000 143.355,222.140 143.200,224.757 143.200 L 229.513 143.200 231.617 148.500 C 232.774 151.415,233.887 153.980,234.091 154.200 C 234.486 154.627,234.008 153.338,231.421 147.000 L 229.788 143.000 224.925 142.888 C 221.751 142.815,219.969 142.926,219.795 143.209 M246.814 143.573 C 246.177 144.764,245.598 146.400,245.813 146.400 C 245.919 146.400,246.295 145.680,246.647 144.800 L 247.287 143.200 251.690 143.200 C 256.539 143.200,256.371 143.084,255.424 145.800 C 255.240 146.328,255.353 146.260,255.758 145.600 C 257.296 143.093,256.884 142.800,251.814 142.800 C 247.691 142.800,247.186 142.878,246.814 143.573 M193.126 144.014 C 192.315 144.442,191.509 145.019,191.334 145.296 C 191.122 145.634,190.931 145.404,190.756 144.600 L 190.495 143.400 190.447 144.700 C 190.401 145.961,190.893 146.420,191.404 145.594 C 191.542 145.370,192.498 144.749,193.528 144.212 C 194.557 143.676,195.220 143.237,195.000 143.236 C 194.780 143.236,193.937 143.586,193.126 144.014 M208.222 144.454 C 211.391 146.464,212.774 148.464,213.851 152.596 C 214.313 154.367,214.350 154.414,214.171 153.000 C 213.643 148.846,209.312 143.200,206.653 143.200 C 206.428 143.200,207.134 143.764,208.222 144.454 M127.559 144.257 C 128.052 145.254,130.037 146.998,131.548 147.759 C 132.777 148.379,136.479 148.948,135.579 148.379 C 135.261 148.177,134.476 148.009,133.835 148.006 C 132.340 147.998,129.558 146.367,128.197 144.700 C 127.613 143.985,127.326 143.786,127.559 144.257 M142.575 145.251 C 141.929 145.939,140.860 146.838,140.200 147.249 C 139.540 147.660,139.190 147.998,139.422 147.999 C 140.209 148.001,144.000 144.805,144.000 144.139 C 144.000 143.822,143.689 144.065,142.575 145.251 M264.664 146.775 C 263.515 147.861,262.164 149.481,261.662 150.375 C 260.430 152.568,260.857 152.455,262.152 150.246 C 262.717 149.282,264.104 147.662,265.233 146.646 C 266.362 145.631,267.166 144.800,267.019 144.800 C 266.872 144.800,265.812 145.689,264.664 146.775 M288.509 146.879 C 289.684 148.045,290.955 149.450,291.334 150.000 C 292.005 150.973,292.011 150.974,291.567 150.042 C 291.003 148.860,288.114 145.689,287.112 145.153 C 286.705 144.935,287.334 145.712,288.509 146.879 M136.900 148.276 C 137.285 148.376,137.915 148.376,138.300 148.276 C 138.685 148.175,138.370 148.093,137.600 148.093 C 136.830 148.093,136.515 148.175,136.900 148.276 M244.292 149.283 C 242.777 153.065,242.401 154.136,242.704 153.800 C 243.192 153.260,244.848 149.114,244.653 148.920 C 244.568 148.835,244.406 148.998,244.292 149.283 M253.638 149.700 C 253.449 150.195,253.004 151.297,252.648 152.149 C 251.944 153.831,251.809 154.567,252.385 153.585 C 252.991 152.549,254.401 148.800,254.184 148.800 C 254.072 148.800,253.826 149.205,253.638 149.700 M275.074 149.943 C 274.658 150.107,275.342 150.223,276.674 150.216 C 279.554 150.199,281.690 151.187,283.024 153.150 C 283.561 153.940,284.000 154.364,284.000 154.093 C 284.000 151.756,277.793 148.870,275.074 149.943 M272.257 151.159 C 271.133 151.900,269.608 153.854,269.603 154.559 C 269.601 154.757,270.009 154.311,270.510 153.569 C 271.010 152.826,272.026 151.810,272.769 151.310 C 273.511 150.809,273.957 150.401,273.759 150.403 C 273.562 150.404,272.885 150.745,272.257 151.159 M195.800 151.087 C 193.875 151.555,191.182 154.484,191.209 156.080 C 191.214 156.366,191.553 155.862,191.962 154.960 C 192.981 152.717,194.664 151.621,197.695 151.227 C 199.877 150.943,199.968 150.901,198.400 150.897 C 197.410 150.895,196.240 150.980,195.800 151.087 M200.800 151.482 C 203.773 152.569,204.163 154.080,204.395 165.400 L 204.600 175.400 209.143 175.514 C 215.302 175.667,214.817 176.577,214.711 165.051 L 214.621 155.400 214.411 165.200 L 214.200 175.000 209.500 175.113 L 204.800 175.225 204.800 165.959 C 204.800 154.758,203.822 151.092,200.869 151.232 C 200.322 151.257,200.309 151.303,200.800 151.482 M292.027 151.200 C 292.025 151.310,292.377 152.390,292.810 153.600 C 293.358 155.130,293.523 155.374,293.351 154.400 C 293.146 153.230,292.042 150.564,292.027 151.200 M223.999 154.385 C 224.841 156.534,225.887 158.530,225.474 157.200 C 224.998 155.667,223.843 152.960,223.511 152.600 C 223.309 152.380,223.528 153.183,223.999 154.385 M259.401 157.300 C 259.256 158.675,259.292 160.700,259.480 161.800 C 259.767 163.482,259.822 163.085,259.823 159.300 C 259.824 154.126,259.764 153.842,259.401 157.300 M293.677 158.694 L 293.600 161.588 281.705 161.694 C 269.233 161.805,268.216 161.976,269.913 163.673 C 270.163 163.923,270.231 163.696,270.104 163.030 L 269.907 162.000 281.766 162.000 C 295.188 162.000,294.120 162.321,293.898 158.358 L 293.754 155.800 293.677 158.694 M241.092 156.883 C 239.577 160.665,239.201 161.736,239.504 161.400 C 239.992 160.860,241.648 156.714,241.453 156.520 C 241.368 156.435,241.206 156.598,241.092 156.883 M250.438 157.300 C 250.249 157.795,249.804 158.897,249.448 159.749 C 248.744 161.431,248.609 162.167,249.185 161.185 C 249.791 160.149,251.201 156.400,250.984 156.400 C 250.872 156.400,250.626 156.805,250.438 157.300 M227.199 161.985 C 228.041 164.134,229.087 166.130,228.674 164.800 C 228.198 163.267,227.043 160.560,226.711 160.200 C 226.509 159.980,226.728 160.783,227.199 161.985 M238.676 162.546 C 238.527 162.933,238.224 163.139,238.003 163.002 C 237.781 162.865,237.600 162.933,237.600 163.153 C 237.600 163.373,237.760 163.651,237.955 163.772 C 238.428 164.065,239.319 162.957,239.111 162.334 C 239.006 162.017,238.850 162.093,238.676 162.546 M247.238 164.900 C 247.049 165.395,246.604 166.497,246.248 167.349 C 245.544 169.031,245.409 169.767,245.985 168.785 C 246.591 167.749,248.001 164.000,247.784 164.000 C 247.672 164.000,247.426 164.405,247.238 164.900 M260.214 164.800 C 260.679 166.632,263.111 170.183,264.866 171.593 C 266.523 172.923,266.506 172.889,264.491 170.826 C 263.331 169.639,261.837 167.572,261.171 166.234 C 260.505 164.895,260.074 164.250,260.214 164.800 M285.329 165.506 C 284.919 165.888,284.758 166.065,284.972 165.900 C 285.919 165.168,287.092 165.733,289.122 167.900 L 291.277 170.200 289.371 167.878 C 286.991 164.978,286.319 164.584,285.329 165.506 M274.940 167.694 C 275.511 168.059,280.752 168.042,281.687 167.672 C 282.065 167.522,280.597 167.400,278.427 167.400 C 276.256 167.400,274.687 167.532,274.940 167.694 M230.387 169.600 C 230.856 170.810,231.636 172.610,232.120 173.600 L 233.000 175.400 238.000 175.425 L 243.000 175.451 238.003 175.225 L 233.007 175.000 231.578 171.508 C 230.003 167.659,229.027 166.095,230.387 169.600 M290.177 171.625 C 289.531 172.298,287.923 173.387,286.602 174.045 C 285.281 174.702,284.650 175.123,285.200 174.979 C 287.153 174.468,292.794 170.400,291.550 170.400 C 291.440 170.400,290.822 170.951,290.177 171.625 M243.800 173.061 C 243.464 173.865,243.282 174.615,243.395 174.728 C 243.508 174.841,243.600 174.835,243.600 174.716 C 243.600 174.596,243.872 173.846,244.205 173.049 C 244.538 172.252,244.721 171.600,244.611 171.600 C 244.501 171.600,244.136 172.258,243.800 173.061 M267.376 173.401 C 268.724 174.441,272.198 175.540,274.845 175.764 L 277.400 175.981 274.328 175.432 C 272.638 175.131,270.208 174.415,268.928 173.843 C 267.647 173.270,266.949 173.071,267.376 173.401 M280.600 175.600 L 279.000 175.886 280.400 175.896 C 281.170 175.901,282.340 175.768,283.000 175.600 C 284.628 175.186,282.913 175.186,280.600 175.600 M133.545 177.967 C 132.525 178.110,131.355 178.482,130.945 178.793 C 129.322 180.028,127.912 181.439,127.543 182.200 C 127.330 182.640,127.543 182.502,128.017 181.893 C 129.385 180.133,132.184 178.401,133.672 178.394 C 134.402 178.391,135.270 178.213,135.600 178.000 C 135.930 177.787,136.020 177.634,135.800 177.660 C 135.580 177.686,134.565 177.824,133.545 177.967 M137.105 178.283 C 137.602 178.379,138.322 178.375,138.705 178.275 C 139.087 178.175,138.680 178.096,137.800 178.101 C 136.920 178.105,136.607 178.187,137.105 178.283 M139.633 178.527 C 139.725 178.597,140.782 179.542,141.982 180.627 C 143.328 181.844,143.824 182.155,143.276 181.438 C 142.464 180.376,140.109 178.400,139.656 178.400 C 139.552 178.400,139.542 178.457,139.633 178.527 M250.749 183.065 C 250.256 183.663,250.284 183.686,251.018 183.296 C 251.534 183.021,253.892 182.911,257.418 182.999 C 261.696 183.106,262.346 183.064,260.200 182.819 C 255.025 182.228,251.361 182.324,250.749 183.065 M144.250 183.400 C 144.417 183.840,144.669 185.640,144.810 187.400 L 145.065 190.600 145.118 187.600 C 145.155 185.526,144.982 184.291,144.558 183.600 C 144.188 182.997,144.066 182.917,144.250 183.400 M118.600 183.490 C 108.437 183.620,108.400 183.632,108.400 186.863 C 108.400 190.842,108.294 190.800,118.256 190.800 C 123.646 190.800,126.807 190.949,126.937 191.210 C 127.049 191.436,127.094 191.391,127.037 191.110 C 126.958 190.720,124.903 190.575,118.273 190.492 C 108.354 190.369,109.032 190.679,109.276 186.379 L 109.400 184.200 117.988 184.092 C 122.904 184.030,126.744 183.816,126.968 183.592 C 127.184 183.376,127.279 183.241,127.180 183.291 C 127.081 183.342,123.220 183.431,118.600 183.490 M267.400 183.613 C 268.940 183.771,271.820 183.895,273.800 183.887 L 277.400 183.874 274.600 183.587 C 273.060 183.429,270.180 183.305,268.200 183.313 L 264.600 183.326 267.400 183.613 M250.000 184.255 C 250.000 184.731,250.753 185.796,254.290 190.325 C 255.891 192.374,257.200 194.199,257.200 194.381 C 257.200 195.526,238.231 210.865,237.015 210.704 C 236.583 210.647,234.367 208.440,232.091 205.800 C 226.393 199.191,224.877 197.600,224.274 197.600 C 223.989 197.600,218.725 201.940,212.578 207.244 C 188.471 228.043,189.713 226.867,190.205 228.414 C 190.890 230.573,191.116 230.470,210.600 219.194 C 219.646 213.958,221.781 212.800,222.388 212.800 C 222.805 212.800,224.928 214.918,227.501 217.900 C 235.587 227.272,235.419 227.147,237.738 225.509 C 239.145 224.516,239.630 224.127,252.835 213.377 C 257.986 209.184,262.784 205.326,263.497 204.804 L 264.793 203.854 265.832 204.827 C 266.402 205.362,268.144 207.375,269.701 209.300 C 271.258 211.225,272.687 212.800,272.878 212.800 C 273.224 212.800,268.886 207.397,266.553 204.922 C 264.733 202.992,264.752 202.986,259.800 207.138 C 259.360 207.507,256.210 210.053,252.800 212.795 C 249.390 215.537,246.510 217.884,246.400 218.009 C 245.975 218.495,238.143 224.700,237.100 225.377 C 235.684 226.298,235.008 225.887,231.761 222.130 C 230.462 220.629,229.309 219.310,229.198 219.200 C 229.086 219.090,228.008 217.830,226.802 216.400 C 222.569 211.380,223.114 211.451,216.800 215.095 C 211.944 217.897,202.408 223.409,201.400 223.997 C 191.957 229.505,192.089 229.446,191.030 228.671 C 189.901 227.846,190.499 226.829,193.699 224.137 C 195.294 222.794,198.400 220.126,200.600 218.208 C 205.362 214.055,205.839 213.644,209.200 210.800 C 210.630 209.590,211.890 208.505,212.000 208.388 C 213.953 206.318,223.721 198.400,224.321 198.400 C 224.859 198.400,226.377 199.853,228.812 202.700 C 230.836 205.065,233.299 207.945,234.286 209.100 C 236.890 212.146,236.769 212.192,246.303 204.550 C 256.251 196.578,257.601 195.375,257.598 194.484 C 257.596 193.913,255.582 191.113,252.509 187.410 C 252.149 186.976,251.437 186.006,250.927 185.254 C 250.417 184.503,250.000 184.053,250.000 184.255 M278.696 187.950 C 278.533 188.692,278.418 189.863,278.440 190.550 C 278.478 191.738,278.499 191.721,278.856 190.200 C 279.062 189.320,279.177 188.150,279.111 187.600 C 279.005 186.713,278.958 186.752,278.696 187.950 M155.867 189.867 C 155.496 190.237,155.529 261.109,155.900 261.338 C 156.065 261.440,156.200 245.341,156.200 225.562 C 156.200 205.783,156.185 189.600,156.167 189.600 C 156.148 189.600,156.013 189.720,155.867 189.867 M164.705 220.800 C 164.803 250.139,164.851 251.998,165.505 251.968 C 165.923 251.949,166.001 251.856,165.700 251.735 C 165.306 251.576,165.200 244.966,165.200 220.567 C 165.200 203.535,165.065 189.600,164.900 189.600 C 164.735 189.600,164.647 203.640,164.705 220.800 M144.004 191.700 C 143.205 193.611,140.718 195.661,138.385 196.330 C 137.623 196.549,137.321 196.744,137.713 196.764 C 139.651 196.862,144.011 193.530,144.527 191.556 C 144.800 190.513,144.461 190.606,144.004 191.700 M127.573 192.749 C 128.475 194.436,132.568 197.077,133.695 196.702 C 133.927 196.624,133.353 196.333,132.420 196.053 C 131.392 195.745,130.023 194.844,128.944 193.765 C 127.965 192.786,127.348 192.329,127.573 192.749 M277.785 194.185 C 277.630 195.423,277.600 196.534,277.719 196.652 C 277.837 196.770,278.061 195.854,278.215 194.615 C 278.370 193.377,278.400 192.266,278.281 192.148 C 278.163 192.030,277.939 192.946,277.785 194.185 M277.011 199.275 C 276.849 200.306,276.802 201.386,276.906 201.675 C 277.010 201.964,277.227 201.356,277.389 200.325 C 277.551 199.294,277.598 198.214,277.494 197.925 C 277.390 197.636,277.173 198.244,277.011 199.275 M276.296 203.950 C 276.133 204.692,276.018 205.863,276.040 206.550 C 276.078 207.738,276.099 207.721,276.456 206.200 C 276.662 205.320,276.777 204.150,276.711 203.600 C 276.605 202.713,276.558 202.752,276.296 203.950 M275.435 209.904 C 275.220 211.359,274.862 212.192,274.273 212.604 C 273.805 212.932,273.629 213.200,273.882 213.200 C 275.108 213.200,276.324 210.405,275.910 208.540 C 275.819 208.133,275.606 208.747,275.435 209.904 M134.707 224.690 C 135.426 224.779,136.506 224.777,137.107 224.686 C 137.708 224.595,137.120 224.522,135.800 224.524 C 134.480 224.526,133.988 224.601,134.707 224.690 M131.189 225.461 C 129.756 226.420,127.991 228.090,127.547 228.908 C 127.336 229.297,127.989 228.790,128.997 227.782 C 130.005 226.774,131.408 225.697,132.115 225.390 C 132.822 225.083,133.125 224.824,132.789 224.816 C 132.453 224.807,131.733 225.098,131.189 225.461 M139.600 225.584 C 140.370 225.995,141.417 226.725,141.926 227.206 C 142.436 227.687,142.936 227.997,143.037 227.896 C 143.387 227.546,139.325 224.774,138.526 224.818 C 138.347 224.827,138.830 225.172,139.600 225.584 M143.840 229.560 C 144.180 230.242,144.519 230.800,144.592 230.800 C 144.918 230.800,144.259 229.181,143.767 228.773 C 143.355 228.430,143.372 228.622,143.840 229.560 M126.800 230.333 C 126.800 230.674,124.554 230.801,118.500 230.805 C 107.716 230.813,108.400 230.578,108.400 234.270 C 108.400 235.921,108.560 237.149,108.758 237.026 C 108.955 236.904,109.217 237.067,109.340 237.387 C 109.524 237.868,111.099 237.990,118.344 238.085 C 123.173 238.148,127.041 238.065,126.939 237.900 C 126.836 237.735,122.897 237.600,118.184 237.600 L 109.615 237.600 109.384 236.679 C 109.257 236.172,109.208 234.777,109.276 233.579 L 109.400 231.400 117.988 231.292 C 125.821 231.193,127.867 230.934,127.073 230.140 C 126.923 229.990,126.800 230.077,126.800 230.333 M199.312 231.095 C 200.364 231.177,201.984 231.176,202.912 231.092 C 203.840 231.008,202.980 230.941,201.000 230.942 C 199.020 230.943,198.260 231.012,199.312 231.095 M238.300 231.093 C 239.235 231.177,240.765 231.177,241.700 231.093 C 242.635 231.009,241.870 230.940,240.000 230.940 C 238.130 230.940,237.365 231.009,238.300 231.093 M144.779 234.200 C 144.662 235.960,144.427 237.760,144.258 238.200 C 144.088 238.640,144.238 238.501,144.592 237.891 C 145.060 237.084,145.202 235.997,145.114 233.891 L 144.993 231.000 144.779 234.200 M195.200 231.600 C 194.396 231.857,194.357 231.923,195.000 231.932 C 195.440 231.938,196.160 231.789,196.600 231.600 C 197.619 231.162,196.568 231.162,195.200 231.600 M205.600 231.600 C 206.968 232.038,208.019 232.038,207.000 231.600 C 206.560 231.411,205.840 231.262,205.400 231.268 C 204.757 231.277,204.796 231.343,205.600 231.600 M234.397 231.574 C 230.549 232.744,226.245 236.498,225.080 239.700 C 224.630 240.935,225.140 240.448,225.839 238.973 C 227.254 235.992,231.000 233.048,234.978 231.791 C 235.870 231.510,236.330 231.277,236.000 231.274 C 235.670 231.271,234.949 231.406,234.397 231.574 M244.400 231.643 C 244.950 231.888,246.082 232.424,246.917 232.833 C 247.751 233.243,248.328 233.407,248.200 233.199 C 247.920 232.746,245.792 231.755,244.400 231.430 L 243.400 231.196 244.400 231.643 M250.267 231.467 C 250.120 231.613,250.000 232.263,250.000 232.909 C 250.000 233.791,249.849 234.028,249.400 233.855 C 249.070 233.729,248.800 233.780,248.800 233.970 C 248.800 234.266,249.722 234.800,250.233 234.800 C 250.325 234.800,250.400 234.074,250.400 233.186 L 250.400 231.573 254.700 231.686 L 259.000 231.800 259.208 246.000 L 259.415 260.200 259.508 246.333 C 259.558 238.706,259.491 232.181,259.357 231.833 C 259.105 231.177,250.888 230.846,250.267 231.467 M192.149 232.767 C 191.241 233.179,190.393 233.688,190.264 233.897 C 190.135 234.105,190.862 233.855,191.880 233.339 C 194.751 231.886,194.931 231.504,192.149 232.767 M208.033 232.149 C 208.445 232.517,210.800 233.600,210.800 233.421 C 210.800 233.190,208.582 232.000,208.153 232.000 C 207.996 232.000,207.942 232.067,208.033 232.149 M213.555 235.907 C 214.808 237.168,216.149 238.875,216.535 239.700 C 217.252 241.230,217.779 241.766,217.322 240.500 C 216.709 238.801,213.377 234.761,211.939 233.975 C 211.575 233.776,212.302 234.645,213.555 235.907 M187.781 236.100 L 186.200 237.800 187.900 236.219 C 189.481 234.748,189.784 234.400,189.481 234.400 C 189.416 234.400,188.651 235.165,187.781 236.100 M127.650 239.589 C 128.339 240.665,131.806 243.211,132.544 243.182 C 132.795 243.173,132.353 242.823,131.563 242.405 C 130.772 241.987,129.425 240.960,128.570 240.123 C 127.550 239.123,127.233 238.940,127.650 239.589 M200.305 239.083 C 200.802 239.179,201.522 239.175,201.905 239.075 C 202.287 238.975,201.880 238.896,201.000 238.901 C 200.120 238.905,199.807 238.987,200.305 239.083 M240.700 239.082 C 241.195 239.178,242.005 239.178,242.500 239.082 C 242.995 238.987,242.590 238.909,241.600 238.909 C 240.610 238.909,240.205 238.987,240.700 239.082 M142.618 240.382 C 141.995 241.031,140.881 241.850,140.143 242.200 C 138.628 242.919,138.398 243.230,139.618 242.911 C 140.384 242.711,144.464 239.250,143.975 239.216 C 143.851 239.207,143.240 239.732,142.618 240.382 M195.648 241.114 C 193.306 243.456,192.635 246.276,193.450 250.351 C 193.684 251.518,196.505 255.200,197.165 255.200 C 197.329 255.200,196.711 254.416,195.793 253.457 C 191.856 249.348,193.558 240.417,198.456 239.488 L 199.400 239.309 198.481 239.254 C 197.873 239.218,196.915 239.847,195.648 241.114 M244.926 239.780 C 247.449 240.679,248.695 242.133,249.228 244.800 L 249.508 246.200 249.554 244.959 C 249.637 242.718,246.357 239.173,244.241 239.218 C 243.697 239.229,243.939 239.427,244.926 239.780 M206.237 241.201 C 208.059 243.262,208.510 244.755,208.338 248.162 C 208.255 249.802,208.322 250.932,208.488 250.672 C 209.752 248.684,208.468 242.922,206.333 241.001 L 205.000 239.802 206.237 241.201 M236.084 240.626 C 234.131 241.994,232.780 247.290,233.925 249.092 C 234.096 249.362,234.164 248.445,234.076 247.054 C 233.896 244.236,234.452 242.726,236.300 241.013 C 237.530 239.872,237.426 239.686,236.084 240.626 M224.229 241.829 C 224.081 242.415,224.038 242.972,224.132 243.066 C 224.227 243.160,224.424 242.758,224.571 242.171 C 224.719 241.585,224.762 241.028,224.668 240.934 C 224.573 240.840,224.376 241.242,224.229 241.829 M217.668 242.000 C 217.688 243.039,218.318 244.746,218.332 243.800 C 218.338 243.360,218.189 242.640,218.000 242.200 C 217.789 241.710,217.661 241.632,217.668 242.000 M183.392 245.340 C 183.242 246.736,183.275 248.851,183.466 250.040 C 183.763 251.899,183.812 251.546,183.813 247.500 C 183.816 242.099,183.766 241.844,183.392 245.340 M134.291 243.489 C 135.001 243.577,136.261 243.579,137.091 243.492 C 137.921 243.405,137.340 243.333,135.800 243.331 C 134.260 243.329,133.581 243.400,134.291 243.489 M223.731 246.600 C 223.733 248.140,223.805 248.721,223.892 247.891 C 223.979 247.061,223.977 245.801,223.889 245.091 C 223.800 244.381,223.729 245.060,223.731 246.600 M218.534 247.600 C 218.534 249.250,218.605 249.925,218.691 249.100 C 218.778 248.275,218.778 246.925,218.691 246.100 C 218.605 245.275,218.534 245.950,218.534 247.600 M249.232 248.041 C 249.183 249.644,247.582 251.705,245.612 252.700 C 244.632 253.195,244.058 253.600,244.335 253.600 C 246.642 253.600,250.214 249.369,249.471 247.517 C 249.357 247.233,249.249 247.468,249.232 248.041 M224.056 250.000 C 224.056 250.330,224.211 250.960,224.400 251.400 C 224.617 251.904,224.744 251.978,224.744 251.600 C 224.744 251.270,224.589 250.640,224.400 250.200 C 224.183 249.696,224.056 249.622,224.056 250.000 M234.400 250.283 C 234.400 251.161,237.730 253.618,238.874 253.584 C 239.163 253.576,238.799 253.308,238.065 252.989 C 237.330 252.670,236.205 251.848,235.565 251.162 C 234.924 250.476,234.400 250.081,234.400 250.283 M217.829 251.829 C 217.681 252.415,217.638 252.972,217.732 253.066 C 217.827 253.160,218.024 252.758,218.171 252.171 C 218.319 251.585,218.362 251.028,218.268 250.934 C 218.173 250.840,217.976 251.242,217.829 251.829 M206.147 253.455 C 205.238 254.415,204.635 255.200,204.807 255.200 C 205.242 255.200,208.000 252.401,208.000 251.960 C 208.000 251.487,208.051 251.446,206.147 253.455 M176.600 256.800 C 176.600 259.398,176.735 261.440,176.900 261.338 C 177.065 261.236,177.200 259.194,177.200 256.800 C 177.200 254.406,177.065 252.364,176.900 252.262 C 176.735 252.160,176.600 254.202,176.600 256.800 M184.016 252.513 C 183.987 253.078,185.206 255.727,185.404 255.530 C 185.510 255.423,185.245 254.631,184.814 253.768 C 184.384 252.906,184.025 252.341,184.016 252.513 M225.113 253.170 C 226.141 255.926,233.200 262.417,233.200 260.606 C 233.200 260.513,232.525 260.119,231.700 259.730 C 230.875 259.341,229.385 258.208,228.388 257.212 C 227.392 256.215,226.259 254.725,225.870 253.900 C 225.132 252.334,224.616 251.837,225.113 253.170 M216.543 255.063 C 216.144 255.904,214.959 257.483,213.909 258.572 C 211.583 260.985,211.374 261.573,213.621 259.381 C 215.392 257.654,217.833 254.099,217.486 253.752 C 217.366 253.633,216.942 254.223,216.543 255.063 M240.500 253.887 C 241.105 253.978,242.095 253.978,242.700 253.887 C 243.305 253.795,242.810 253.720,241.600 253.720 C 240.390 253.720,239.895 253.795,240.500 253.887 M198.538 255.694 C 198.792 255.856,199.900 255.988,201.000 255.988 C 202.100 255.988,203.208 255.856,203.462 255.694 C 203.716 255.532,202.608 255.400,201.000 255.400 C 199.392 255.400,198.284 255.532,198.538 255.694 M185.904 256.617 C 187.051 258.771,191.642 262.207,194.400 262.976 C 194.950 263.129,194.090 262.587,192.488 261.770 C 190.543 260.779,188.894 259.541,187.523 258.043 C 186.393 256.809,185.665 256.168,185.904 256.617 M248.600 259.074 C 246.573 260.635,244.146 261.376,240.200 261.640 L 236.200 261.906 240.238 261.853 C 243.937 261.804,244.482 261.693,246.738 260.529 L 249.200 259.258 249.200 260.442 C 249.200 262.091,248.296 264.082,246.944 265.409 C 245.893 266.442,245.881 266.483,246.800 265.918 C 248.294 265.000,249.677 262.040,249.526 260.084 C 249.405 258.524,249.367 258.483,248.600 259.074 M209.000 262.044 C 207.680 262.691,207.050 263.102,207.600 262.959 C 208.788 262.648,211.600 261.266,211.600 260.992 C 211.600 260.752,211.822 260.662,209.000 262.044 M234.200 261.200 C 234.640 261.389,235.270 261.544,235.600 261.544 C 235.978 261.544,235.904 261.417,235.400 261.200 C 234.960 261.011,234.330 260.856,234.000 260.856 C 233.622 260.856,233.696 260.983,234.200 261.200 M258.611 262.700 C 257.938 267.278,255.177 271.083,250.972 273.227 C 249.667 273.892,249.050 274.319,249.600 274.176 C 252.734 273.363,256.263 270.114,257.810 266.617 C 258.678 264.653,259.527 260.800,259.091 260.800 C 258.981 260.800,258.765 261.655,258.611 262.700 M196.600 263.580 C 197.834 263.915,200.664 264.118,200.367 263.850 C 200.275 263.768,199.120 263.600,197.800 263.477 C 196.222 263.330,195.811 263.365,196.600 263.580 M203.200 263.600 C 201.850 263.884,201.843 263.895,203.000 263.900 C 203.660 263.903,204.740 263.768,205.400 263.600 C 207.060 263.178,205.207 263.178,203.200 263.600 M227.665 266.400 C 226.940 267.720,226.431 268.800,226.535 268.800 C 226.639 268.800,227.282 267.810,227.965 266.600 C 228.648 265.390,229.275 264.400,229.359 264.400 C 229.442 264.400,230.682 264.948,232.114 265.618 C 233.546 266.289,235.411 266.922,236.259 267.027 C 237.500 267.180,237.374 267.095,235.614 266.594 C 234.412 266.252,232.634 265.529,231.664 264.986 C 229.256 263.641,229.164 263.673,227.665 266.400 M244.000 266.800 C 243.176 267.064,243.141 267.126,243.800 267.154 C 244.240 267.173,244.870 267.013,245.200 266.800 C 245.901 266.347,245.414 266.347,244.000 266.800 M239.507 267.490 C 240.226 267.579,241.306 267.577,241.907 267.486 C 242.508 267.395,241.920 267.322,240.600 267.324 C 239.280 267.326,238.788 267.401,239.507 267.490 M225.745 269.800 C 225.378 270.756,225.859 271.510,227.279 272.203 L 228.600 272.848 227.600 272.033 C 227.050 271.585,226.445 271.214,226.257 271.209 C 226.068 271.204,226.026 270.750,226.164 270.200 C 226.436 269.119,226.121 268.819,225.745 269.800 M234.600 274.823 C 236.626 275.242,238.263 275.223,236.600 274.800 C 235.940 274.632,234.860 274.494,234.200 274.493 C 233.191 274.492,233.255 274.545,234.600 274.823 M245.600 274.800 C 244.256 275.231,245.708 275.231,247.400 274.800 C 248.478 274.526,248.498 274.494,247.600 274.487 C 247.050 274.483,246.150 274.624,245.600 274.800 M239.511 275.493 C 240.451 275.578,241.891 275.577,242.711 275.491 C 243.530 275.405,242.760 275.336,241.000 275.337 C 239.240 275.339,238.570 275.409,239.511 275.493 " stroke="none" fill="#98a9a5" fill-rule="evenodd"></path></g></svg>